<?xml version="1.0" standalone="no"?>
<!DOCTYPE svg PUBLIC "-//W3C//DTD SVG 20010904//EN"
 "http://www.w3.org/TR/2001/REC-SVG-20010904/DTD/svg10.dtd">
<svg version="1.0" xmlns="http://www.w3.org/2000/svg"
 width="700.000000pt" height="700.000000pt" viewBox="0 0 700.000000 700.000000"
 preserveAspectRatio="xMidYMid meet">
<metadata>
Created by potrace 1.11, written by Peter Selinger 2001-2013
</metadata>
<g transform="translate(0.000000,700.000000) scale(0.100000,-0.100000)"
fill="#000000" stroke="none">
<path d="M0 3500 l0 -3500 3500 0 3500 0 0 3500 0 3500 -3500 0 -3500 0 0
-3500z m3525 2675 c294 -26 475 -161 551 -411 14 -44 19 -93 19 -194 0 -121
-3 -141 -24 -190 -48 -111 -152 -237 -239 -290 l-41 -25 -1 -915 0 -915 108
-70 c59 -38 468 -307 909 -597 l802 -528 52 31 c130 76 271 108 406 91 198
-26 319 -78 411 -176 110 -119 152 -239 152 -438 0 -132 -16 -188 -81 -285
-124 -183 -284 -274 -510 -290 -97 -7 -186 10 -301 58 -173 71 -290 208 -333
390 -8 35 -15 80 -15 99 l0 35 -940 612 -940 612 -902 -533 -903 -533 5 -39
c3 -21 5 -95 5 -164 l0 -125 -45 -85 c-92 -178 -255 -299 -450 -336 -159 -30
-338 1 -478 82 -264 155 -350 530 -186 818 37 65 119 146 193 190 66 38 192
81 268 92 60 8 216 -11 297 -37 l59 -18 904 577 903 576 0 104 0 105 20 -26
c37 -46 121 -54 168 -15 14 12 15 9 9 -27 -13 -80 -66 -118 -138 -98 l-40 11
3 -31 c3 -27 8 -32 42 -39 44 -9 99 4 130 31 84 74 88 317 6 399 -16 16 -43
32 -59 34 -41 6 -101 -16 -123 -44 -17 -22 -18 7 -20 691 l-3 715 -50 29
c-270 156 -359 538 -191 816 58 95 125 156 233 211 68 34 235 81 268 75 11 -2
52 -7 90 -10z m-176 -2561 c47 -59 15 -174 -48 -174 -39 0 -61 20 -71 65 -11
48 3 110 28 124 32 19 69 12 91 -15z"/>
<path d="M3356 6034 c-229 -55 -389 -297 -349 -529 32 -184 179 -344 354 -384
110 -26 247 -7 339 47 273 157 323 523 101 742 -122 120 -279 164 -445 124z
m474 -369 l0 -105 -29 0 -28 0 -6 98 c-2 53 -3 100 0 105 2 4 17 7 34 7 l29 0
0 -105z m-585 11 c42 -18 55 -42 55 -105 0 -74 -30 -106 -100 -106 -44 0 -55
4 -76 28 -45 53 -29 157 28 182 42 18 51 18 93 1z m242 0 c1 -1 0 -12 -3 -24
-5 -17 -13 -21 -41 -19 -44 2 -56 -20 -16 -29 42 -10 63 -33 63 -69 0 -48 -30
-70 -95 -70 -61 0 -70 5 -60 35 5 17 12 20 32 15 28 -7 63 2 63 15 0 5 -20 18
-45 29 -40 18 -45 23 -45 53 0 41 8 54 40 67 20 8 97 6 107 -3z m105 -73 c3
-77 3 -78 31 -81 l27 -3 0 80 0 81 35 0 35 0 0 -104 0 -104 -45 -6 c-60 -9
-112 2 -130 27 -10 15 -15 47 -15 104 l0 83 30 0 29 0 3 -77z m238 -102 c0
-31 -16 -43 -49 -34 -15 4 -21 13 -21 34 0 26 3 29 35 29 32 0 35 -3 35 -29z"/>
<path d="M3176 5624 c-31 -31 -14 -114 24 -114 23 0 40 28 40 69 0 28 -21 61
-40 61 -5 0 -16 -7 -24 -16z"/>
<path d="M3609 3699 c-71 -18 -99 -63 -99 -156 0 -64 23 -113 61 -134 33 -17
94 -14 125 6 l27 17 -6 -38 c-13 -79 -66 -116 -138 -97 l-40 11 3 -31 c3 -27
8 -32 42 -39 112 -23 186 55 194 208 9 173 -63 282 -169 253z m80 -75 c47 -59
15 -174 -48 -174 -39 0 -61 20 -71 65 -11 48 3 110 28 124 32 19 69 12 91 -15z"/>
<path d="M3781 3120 c-26 -27 -34 -29 -52 -20 -17 10 -23 8 -35 -7 -12 -16
-11 -20 7 -35 21 -17 20 -19 -60 -132 -45 -63 -81 -117 -81 -119 0 -3 11 -12
24 -21 l25 -16 81 115 c44 63 83 115 85 115 3 0 30 -16 60 -36 l54 -36 -72
-104 c-40 -57 -76 -111 -82 -119 -7 -10 -4 -19 10 -29 11 -9 23 -16 27 -16 4
0 44 52 89 115 l81 116 35 -27 c33 -25 35 -25 48 -8 20 26 19 26 -21 52 l-37
24 26 25 25 25 42 -23 c35 -20 43 -21 50 -9 16 25 11 34 -27 59 -53 34 -96 32
-136 -7 l-33 -32 -48 35 c-63 44 -59 40 -46 64 13 26 47 27 80 1 23 -17 26
-17 42 -3 26 23 23 29 -25 58 -59 34 -98 33 -136 -5z"/>
<path d="M3097 3126 c-37 -14 -127 -81 -127 -95 0 -4 6 -16 14 -27 14 -18 16
-18 48 13 73 71 150 73 156 6 3 -28 -2 -36 -37 -60 -42 -29 -47 -38 -31 -63 7
-12 15 -11 53 8 56 28 78 28 105 -1 29 -31 28 -72 -3 -103 -28 -28 -83 -54
-115 -54 -23 0 -24 -1 -8 -34 13 -31 37 -28 113 14 65 35 95 79 95 137 0 38
-6 51 -34 79 -24 24 -43 34 -65 34 -29 0 -30 1 -19 25 23 51 -18 116 -82 129
-14 3 -42 -1 -63 -8z"/>
<path d="M2797 2936 c-37 -14 -127 -80 -127 -95 0 -4 6 -16 14 -27 14 -18 16
-18 48 13 66 64 140 73 154 19 8 -32 -8 -60 -51 -86 -29 -18 -33 -25 -25 -41
13 -24 21 -24 67 1 21 11 48 20 60 20 26 0 63 -44 63 -75 0 -43 -83 -105 -140
-105 -23 0 -25 -17 -6 -42 16 -21 54 -13 121 26 55 33 85 81 85 136 0 34 -6
48 -34 76 -24 24 -43 34 -64 34 -30 0 -31 1 -20 31 15 44 -10 95 -57 115 -41
17 -40 17 -88 0z"/>
<path d="M1080 2030 c0 -6 -4 -8 -10 -5 -5 3 -10 -3 -10 -15 0 -16 5 -21 23
-18 24 3 32 38 10 46 -7 2 -13 -1 -13 -8z"/>
<path d="M1252 2024 c-16 -18 -7 -34 19 -34 15 0 20 6 17 22 -4 27 -19 32 -36
12z"/>
<path d="M5980 1997 c-44 -22 -60 -70 -60 -186 0 -104 0 -104 -36 -151 -41
-53 -104 -201 -104 -244 0 -23 3 -27 12 -18 23 23 39 12 79 -53 23 -36 44 -65
48 -65 4 0 8 -20 10 -43 3 -70 -11 -75 -127 -46 l-97 24 2 45 2 45 -16 -43
c-20 -57 -14 -62 105 -96 112 -31 120 -32 147 -6 15 14 36 21 66 22 70 1 147
-12 160 -28 18 -22 74 -17 106 10 15 13 52 38 81 56 28 17 52 39 52 47 0 13
-3 13 -15 3 -29 -24 -149 -80 -171 -80 -33 0 -42 19 -42 93 0 38 -3 71 -6 75
-3 3 -6 -8 -6 -25 0 -62 -108 -124 -179 -103 -18 5 -39 14 -47 21 -13 10 -12
14 2 30 20 22 13 35 -48 89 -30 26 -48 50 -48 63 1 27 40 135 95 262 14 33 19
37 29 24 20 -27 42 -28 94 -4 l50 23 15 -36 c9 -21 19 -48 23 -62 4 -14 15
-37 25 -51 20 -28 41 -108 33 -121 -3 -5 -2 -38 1 -73 6 -50 11 -66 26 -70 43
-14 99 55 99 122 0 61 -27 137 -66 189 -64 83 -84 131 -84 198 -1 74 -23 122
-69 153 -38 26 -101 30 -141 10z m4 -133 c9 -8 16 -23 16 -32 0 -13 -2 -13
-15 4 -15 19 -15 19 -30 0 -17 -23 -20 -5 -5 25 13 23 14 23 34 3z m124 3 c6
-7 10 -35 8 -62 -4 -76 -57 -106 -126 -70 -17 9 -30 22 -30 29 0 8 -2 21 -5
28 -3 8 1 14 12 14 10 1 31 5 47 9 23 6 27 5 21 -5 -5 -8 -4 -11 3 -7 5 4 8
17 5 29 -10 35 42 63 65 35z"/>
<path d="M6060 1825 c0 -18 5 -25 20 -25 15 0 20 7 20 25 0 18 -5 25 -20 25
-15 0 -20 -7 -20 -25z"/>
<path d="M6074 1754 c-18 -14 -18 -15 4 -4 12 6 22 13 22 15 0 8 -5 6 -26 -11z"/>
<path d="M845 1940 c-47 -10 -86 -35 -132 -82 -47 -49 -124 -168 -117 -180 12
-20 42 -3 80 45 46 59 90 92 143 107 41 11 171 14 171 3 0 -42 -107 -333 -197
-535 -63 -143 -65 -149 -49 -173 11 -17 26 -25 45 -25 58 0 70 31 181 458 l73
282 104 0 c62 0 103 -4 103 -10 0 -6 -13 -70 -30 -143 -43 -195 -57 -335 -42
-443 11 -86 29 -130 58 -141 24 -9 63 6 80 32 15 24 15 30 -10 108 -46 148
-51 325 -15 532 l11 65 129 0 c125 0 131 1 154 25 29 28 30 34 11 61 -14 18
-30 19 -368 20 -194 0 -366 -3 -383 -6z"/>
<path d="M5760 1370 c-9 -6 -10 -10 -3 -10 6 0 15 5 18 10 8 12 4 12 -15 0z"/>
<path d="M5700 1349 c0 -5 5 -7 10 -4 6 3 10 8 10 11 0 2 -4 4 -10 4 -5 0 -10
-5 -10 -11z"/>
</g>
</svg>
